<svg viewBox="0 0 410 404" fill="none" xmlns="http://www.w3.org/2000/svg"><path d="M399.641 59.5246L215.643 388.545C211.844 395.338 202.084 395.378 198.228 388.618L10.5817 59.5563C6.38087 52.1896 12.6802 43.2665 21.0281 44.7586L205.223 77.6824C206.398 77.8924 207.601 77.8904 208.776 77.6763L## 389.119 44.8058C397.439 43.2894 403.768 52.1434 399.641 59.5246Z" fill="url(#paint0_linear)"/><path d="M292.965 1.5744L156.801 28.2552C154.563 28.6937 152.906 30.5903 152.771 32.8664L144.395 167.344C144.198 170.708 147.258 173.337 150.533 172.644L198.917 161.709C202.604 160.927 205.854 164.071 205.189 167.787L## 193.235 234.021C192.534 237.908 196.07 241.122 199.876 240.107L228.679 232.27C232.503 231.25 236.049 234.495 235.305 238.383L216.483 340.14C215.418 345.681 222.883 348.463 225.237 343.39L226.842 339.928L331.688 107.57C333.477 103.702 329.924 99.5184 325.804 100.566L276.965 113.191C273.153 114.14 269.86 110.615 270.944 106.847L295.378 14.8311C296.466 11.0477 293.141 7.51356 289.32 8.49585Z" fill="url(#paint1_linear)"/><defs><linearGradient id="paint0_linear" x1="6.00017" y1="32.9999" x2="235" y2="344" gradientUnits="userSpaceOnUse"><stop stop-color="#41D1FF"/><stop offset="1" stop-color="#BD34FE"/></linearGradient><linearGradient id="paint1_linear" x1="194.651" y1="8.81818" x2="236.076" y2="292.989" gradientUnits="userSpaceOnUse"><stop stop-color="#FFBD4F"/><stop offset="1" stop-color="#FF9640"/></linearGradient></defs></svg>
