<svg xmlns="http://www.w3.org/2000/svg" viewBox="0 0 136 52" id="logo" width="100%" height="100%"><style type="text/css">
  .s1{fill:#3071f3;}
</style><g transform="translate(-508 -50)"><path id="bba" class="s1" d="M564.85 101V63.14c0-2.6 2.04-5.29 4.53-5.96l14.59-3.95L588.5 52v37.86c0 2.6-2.04 5.29-4.53 5.96l-14.59 3.96zm19.52-14.98V83.5c0-.3-.25-.52-.57-.52h-9.68v-5.31h9.24c.33 0 .58-.23.58-.52v-2.57c0-.3-.21-.51-.58-.51h-9.24v-4.7h9.68c.32 0 .57-.22.57-.51v-2.57c0-.3-.25-.52-.57-.52h-13.82c-.32 0-.58.23-.58.55v19.71c0 .33.26.55.58.55h13.82c.32 0 .57-.22.57-.55zm-73.7-.21c-.34-.1-.5-.36-.5-.69v-.07l.44-2.23c.07-.32.3-.43.54-.43.14 0 .29.04.29.04s3.77.91 6.26.91c2.3 0 3.95-.62 3.95-2.58 0-1.53-1.08-2.08-2.45-2.3l-2.01-.32c-1.69-.25-3.81-.62-5.28-1.82-1.15-.9-1.91-2.28-1.91-4.4 0-5.01 3.92-6.28 8.27-6.28 2.73 0 5.5.54 6.87.98.43.14.61.33.61.66 0 .14-.03.28-.03.28l-.47 2.12c-.07.28-.26.4-.5.4h-.12c-1.18-.26-3.6-.88-6.07-.88-2.09 0-3.85.4-3.85 2.29 0 1.45 1.19 2.07 2.62 2.32l1.87.33c1.66.3 3.53.48 4.93 1.38 1.4.88 2.34 2.33 2.34 4.91 0 5.02-4.24 6.43-8.46 6.43-3.12 0-6.03-.65-7.33-1.05zm31.14.21V66.31c0-.33.25-.55.58-.55h8.6c7.08 0 9.81 2.72 9.81 10.4 0 7.7-2.76 10.41-9.82 10.41h-8.6c-.32 0-.57-.22-.57-.55zm14.14-9.9c0-6.06-1.55-6.94-5.43-6.94h-4v13.94h4c3.88 0 5.43-.91 5.43-7zm60.97 9.9v-19.1c0-.29.22-.46.5-.53l3.71-1 .1-.01c.26-.03.4.17.4.43v20.22c0 .32-.25.54-.57.54h-3.56c-.32 0-.58-.22-.58-.54zm-85.57 0v-19.1c0-.29.21-.46.5-.53l3.7-1 .11-.01c.25-.03.4.17.4.43v20.22c0 .32-.25.54-.58.54h-3.56c-.32 0-.57-.22-.57-.54zm95.86-.2c-.36-.12-.5-.37-.5-.7v-.07l.43-2.23c.07-.32.28-.43.54-.43.14 0 .28.04.28.04s3.78.91 6.26.91c2.3 0 3.96-.62 3.96-2.58 0-1.53-1.08-2.08-2.45-2.3l-2.01-.32c-1.7-.25-3.81-.62-5.28-1.82-1.16-.9-1.92-2.28-1.92-4.4 0-5.01 3.92-6.28 8.27-6.28 2.74 0 5.5.54 6.87.98.44.14.62.33.62.66 0 .14-.04.28-.04.28l-.46 2.12c-.07.28-.26.4-.51.4h-.1c-1.2-.26-3.6-.88-6.08-.88-2.09 0-3.85.4-3.85 2.29 0 1.45 1.19 2.07 2.63 2.32l1.86.33c1.65.3 3.53.48 4.93 1.38 1.4.88 2.34 2.33 2.34 4.91 0 5.02-4.24 6.43-8.46 6.43-3.12 0-6.04-.65-7.33-1.05zm-19.92.75a.94.94 0 0 1-.73-.38l-9.38-13.64.3 13.66v.03c-.08.2-.29.33-.55.33h-3.55c-.36 0-.54-.22-.54-.55V66.31c0-.33.25-.55.58-.55h3.16c.26 0 .55.15.7.37l9.4 13.71-.23-9.98-.04-3.55c0-.33.25-.55.57-.55h3.53c.32 0 .57.22.57.55v19.56c0 .45-.33.7-.72.7z"></path></g></svg>
